<mxfile host="app.diagrams.net" modified="2023-12-25T09:15:24.816Z" agent="Mozilla/5.0 (Windows NT 10.0; Win64; x64) AppleWebKit/537.36 (KHTML, like Gecko) Chrome/120.0.0.0 Safari/537.36" version="22.1.11" etag="tqUEa9uLXzV1v7rWLTUE" type="github">
  <diagram name="Trang-1" id="e8Nrn_tOvVO1mee3g39Q">
    <mxGraphModel>
      <root>
        <mxCell id="0" />
        <mxCell id="1" parent="0" />
      </root>
    </mxGraphModel>
  </diagram>
</mxfile>
